<svg width="512" height="512" xmlns="http://www.w3.org/2000/svg">

 <g>
  <title>background</title>
  <rect fill="#00bfbf" id="canvas_background" height="514" width="514" y="-1" x="-1"/>
 </g>
 <g>
  <title>Layer 1</title>
  <path id="svg_4" d="m248.066,121.006c0,-14.837 -12.071,-26.909 -26.909,-26.909c-14.833,0 -26.9,12.071 -26.9,26.909s12.067,26.909 26.9,26.909c14.838,0 26.909,-12.071 26.909,-26.909zm-43.808,0c0,-9.323 7.581,-16.909 16.9,-16.909c9.323,0 16.909,7.585 16.909,16.909s-7.585,16.909 -16.909,16.909c-9.319,0 -16.9,-7.585 -16.9,-16.909z"/>
  <path id="svg_5" d="m224.901,198.757c4.625,-5.225 45.194,-51.777 45.194,-77.198c0,-26.979 -21.954,-48.929 -48.938,-48.929c-26.979,0 -48.929,21.949 -48.929,48.929c0,25.42 40.56,71.973 45.185,77.197l3.743,4.229l3.745,-4.228zm-42.672,-77.197c0,-21.465 17.463,-38.929 38.929,-38.929c21.47,0 38.938,17.463 38.938,38.929c0,16.635 -25.371,50.145 -38.938,66.228c-13.565,-16.08 -38.929,-49.581 -38.929,-66.228z"/>
  <rect id="svg_7" y="354.72" x="45.697" width="48.194" height="10"/>
  <rect id="svg_8" y="354.72" x="18.292" width="15.754" height="10"/>
  <rect id="svg_9" y="382.037" x="64.802" width="29.088" height="10"/>
  <rect id="svg_11" y="280.128" x="167.354" width="25.623" height="10"/>
  <path id="svg_12" d="m42.816,178.75l0,95.207l10.954,0l28.329,0l52.807,39.729c-0.158,1.389 -0.288,2.797 -0.382,4.226c-15.082,13.107 -24.412,31.097 -24.412,50.925l0,20.981l18.149,0c1.49,16.317 10.193,30.571 22.887,39.552l-70.045,0l0,10l186,0l0,-10l-53.118,0c6.343,-4.487 11.688,-10.288 15.638,-17.01l33.589,0l16.022,-8.269c4.417,2.403 9.476,3.77 14.846,3.77l72.388,0l2.363,-0.003l1.5,-1.822c0.086,-0.105 1.77,-2.115 4.883,-5.316c3.948,11.917 11.916,21.965 22.186,28.65l-84.297,0l0,10l180.605,0l0,-10l-36.953,0c14.928,-9.742 24.822,-26.58 24.822,-45.695c0,-12.11 -4.076,-23.822 -11.379,-33.311c5.221,-0.669 10.592,-1.037 16.104,-1.037c4.191,0 5.579,-2.857 5.904,-3.733c1.668,-4.487 -2.292,-7.902 -8.286,-13.071c-1.349,-1.164 -2.624,-2.262 -3.362,-3.004c-12.035,-12.045 -27.188,-19.814 -43.627,-22.601l-40.978,-100.418l12.352,0l0,-4.688l1.026,0c8.797,0 15.953,-7.156 15.953,-15.952l0,-0.343c0,-8.796 -7.156,-15.953 -15.953,-15.953l-1.026,0l0,-4.688l-34.588,0c-11.487,0 -20.833,9.346 -20.833,20.833l0,9.68c0,0.375 0.02,0.744 0.056,1.109l-6.093,0l-21.27,-21.271l-24.982,0l0,10l20.84,0l21.27,21.271l20.063,0l-11.099,33.635l14.987,88.778c-7.368,7.195 -13.392,15.79 -17.617,25.385l-56.765,0c-2.693,-5.52 -4.873,-11.268 -6.516,-17.217c-7.377,-26.731 -1.742,-50.34 3.053,-63.5c5.217,-1.314 9.094,-6.032 9.094,-11.65c0,-16.375 -13.322,-29.697 -29.697,-29.697l-102.928,0c-11.503,0 -20.862,9.358 -20.862,20.862c0,3.981 1.141,7.693 3.085,10.862l-9.48,0l0,-85.206l-95.207,0zm10,85.207l0,-75.207l75.207,0l0,75.207l-74.253,0l-0.954,0zm67.296,104.879c0,-34.482 33.443,-62.537 74.55,-62.537l18.891,0c27.199,0 49.327,18.448 49.327,41.124l0,24.19l0,5l0,3.204l-25.99,0c-2.532,-27.745 -25.925,-49.552 -54.315,-49.552c-28.395,0 -51.792,21.807 -54.324,49.552l-8.138,0l0,-10.981l-0.001,0zm18.199,10.981c2.494,-22.22 21.389,-39.552 44.263,-39.552c22.87,0 41.761,17.332 44.254,39.552l-88.517,0zm59.007,10c-2.09,6.144 -7.903,10.581 -14.744,10.581c-6.845,0 -12.661,-4.438 -14.752,-10.581l29.496,0zm-14.754,39.552c-22.87,0 -41.761,-17.332 -44.254,-39.552l19.167,0c2.333,11.72 12.697,20.581 25.097,20.581c12.395,0 22.756,-8.861 25.088,-20.581l19.166,0c-0.494,4.405 -1.629,8.618 -3.317,12.542l-17.723,0l0,10l11.755,0c-8.165,10.348 -20.805,17.01 -34.979,17.01zm78.221,-27.01l-26.58,0c1.361,-3.996 2.274,-8.193 2.671,-12.542l28.934,0c1.27,2.713 2.916,5.212 4.871,7.435l-9.896,5.107zm210.793,-18.685c0,24.561 -19.986,44.542 -44.552,44.542c-21.044,0 -39.33,-15.04 -43.602,-35.391c4.956,-4.474 11.231,-9.657 18.665,-14.856c-0.42,1.836 -0.648,3.742 -0.648,5.703c0,14.107 11.477,25.585 25.585,25.585s25.585,-11.478 25.585,-25.585c0,-11.097 -7.102,-20.563 -16.998,-24.099c7.23,-2.935 14.945,-5.429 23.1,-7.218c8.203,8.325 12.865,19.6 12.865,31.319zm-55.757,-10.809l6.763,13.1l8.885,-4.587l-6.762,-13.1c0.759,-0.114 1.529,-0.192 2.319,-0.192c8.594,0 15.585,6.992 15.585,15.586s-6.991,15.585 -15.585,15.585s-15.585,-6.991 -15.585,-15.585c0,-4.196 1.674,-8.002 4.38,-10.807zm-6.489,-193.301c3.283,0 5.953,2.67 5.953,5.953l0,0.343c0,3.282 -2.67,5.952 -5.953,5.952l-1.026,0l0,-12.248l1.026,0zm-46.447,15.826l0,-9.68c0,-5.974 4.859,-10.833 10.833,-10.833l24.588,0l0,21.623l-24.688,0l-9.624,0c-0.612,-0.001 -1.109,-0.499 -1.109,-1.11zm-0.942,45.524l11.354,-34.41l11.858,0l40.522,99.302c-0.812,-0.023 -1.621,-0.06 -2.437,-0.06c-17.681,0 -34.227,5.802 -47.708,15.667l-13.589,-80.499zm61.298,74.832c18.974,0 36.816,7.401 50.239,20.837c0.888,0.89 2.098,1.946 3.4,3.072c-34.131,2.378 -62.188,17.219 -80.281,29.837c-17.199,11.995 -28.455,23.9 -32.42,28.368l-70.099,0c-9.956,0 -18.329,-6.912 -20.596,-16.2l37.539,0l-0.04,-0.049l41.281,-0.002l0.584,-4.331c4.738,-35.079 35,-61.532 70.393,-61.532zm-77.835,48.551c-0.694,2.393 -1.287,4.83 -1.762,7.313l-40.646,0.002c-1.82,-2.378 -3.523,-4.819 -5.113,-7.314l47.521,0l0,-0.001zm-54.697,7.315l-17.83,0.001l0,-24.19c0,-28.189 -26.614,-51.124 -59.327,-51.124l-18.891,0c-18.298,0 -35.242,5.029 -49.095,13.538c2.897,-16.515 10.255,-29.319 14.733,-35.877l117.805,0c-4.852,14.896 -9.411,38.868 -1.984,65.78c3.132,11.349 8.026,22.031 14.589,31.872zm-125.429,-129.379l102.929,0c10.861,0 19.697,8.836 19.697,19.697c0,1.117 -0.909,2.027 -2.027,2.027l-120.599,0c-5.989,0 -10.862,-4.873 -10.862,-10.862s4.873,-10.862 10.862,-10.862zm-16.806,31.724c-4.069,6.908 -8.801,16.757 -11.631,28.672l-38.11,-28.672l39.29,0l10.451,0z"/>
  <rect id="svg_13" y="200.669" x="90.419" width="28.684" height="10"/>
  <rect id="svg_14" y="429.369" x="281.113" width="17.323" height="10"/>
  <rect id="svg_15" y="429.369" x="53.77" width="15.833" height="10"/>
 </g>
</svg>