<?xml version="1.0" ?><svg viewBox="0 0 24 24" xmlns="http://www.w3.org/2000/svg" xmlns:xlink="http://www.w3.org/1999/xlink"><defs><linearGradient gradientUnits="userSpaceOnUse" id="a" x1="5.89649" x2="21.10358" y1="7.39654" y2="22.60363"><stop offset="0" stop-color="#fff" stop-opacity="0"/><stop offset="1" stop-color="#fff" stop-opacity="0.1"/></linearGradient></defs><title/><path d="M13.19287,11.89453a.49994.49994,0,0,0,.70166-.0874l7-9a.5.5,0,0,0-.78906-.61426l-7,9A.49976.49976,0,0,0,13.19287,11.89453Z" fill="#e83628"/><path d="M14,6a2,2,0,1,0-2-2A2.002,2.002,0,0,0,14,6Zm0-3a1,1,0,1,1-1,1A1.0013,1.0013,0,0,1,14,3Z" fill="#e83628"/><path d="M18,10a2,2,0,1,0,2-2A2.002,2.002,0,0,0,18,10Zm3,0a1,1,0,1,1-1-1A1.0013,1.0013,0,0,1,21,10Z" fill="#e83628"/><path d="M21,17.5a25.04807,25.04807,0,0,0-4.05072.68384c-.25183-1.31574-2.02032-1.80249-3.84967-2.17407a8.58614,8.58614,0,0,1-2.13623-.7876A5.40472,5.40472,0,0,0,8.5,14.5a11.18366,11.18366,0,0,0-2.84436.42548,1.99422,1.99422,0,0,0-1.4491-1.194l-3.6084-.72168a.508.508,0,0,0-.415.10351A.50078.50078,0,0,0,0,13.5v8a.49971.49971,0,0,0,.5.5H3.19922a2.00974,2.00974,0,0,0,1.74084-1.02124C6.50958,21.72888,11.43262,24,13.5,24c1.93945,0,5.93115-1.9624,8.57227-3.26074.68945-.33887,1.25927-.61914,1.6289-.78125A.50069.50069,0,0,0,24,19.5C24,18.32227,22.76611,17.5,21,17.5Z"/><path d="M3.19922,21H1V14.10986l3.01025.60205A1.00022,1.00022,0,0,1,4.8042,15.834L4.189,20.14111A1.0045,1.0045,0,0,1,3.19922,21Z" fill="#e83628"/><path d="M1.92072,16.40088A1.12336,1.12336,0,0,1,3.2644,15.29932l1.52832.30566a.98718.98718,0,0,0-.78247-.89307L1,14.10986V21h.92072Z" fill="#fff" opacity="0.2"/><path d="M21.63086,19.8418C19.22852,21.023,15.207,23,13.5,23c-1.7171,0-6.28131-2.03082-8.28107-2.99561l.5755-4.0288c.00245-.01709.00025-.03363.00226-.05066A10.45119,10.45119,0,0,1,8.5,15.5a4.51085,4.51085,0,0,1,2.0293.62256,9.54625,9.54625,0,0,0,2.37109.86767C15.07324,17.43066,16,17.88232,16,18.5a.2959.2959,0,0,1-.13232.26807c-.3169.2373-1.55811.63672-6.22559-.74756a.5001.5001,0,0,0-.28418.959,20.26923,20.26923,0,0,0,5.312,1.023,3.00193,3.00193,0,0,0,1.7959-.4331,1.34277,1.34277,0,0,0,.29608-.31372A28.08124,28.08124,0,0,1,21,18.5a2.31056,2.31056,0,0,1,1.92627.71289C22.57715,19.377,22.13525,19.59424,21.63086,19.8418Z" fill="#f2f2f2"/><path d="M21.7326,18.57568c-.16339.08-.32543.15924-.50628.248-2.40235,1.18115-6.42383,3.1582-8.13086,3.1582-1.58356,0-5.58417-1.72558-7.766-2.75091l-.11048.77343C7.21869,20.96918,11.7829,23,13.5,23c1.707,0,5.72852-1.977,8.13086-3.1582.50439-.24756.94629-.46485,1.29541-.62891A1.70763,1.70763,0,0,0,21.7326,18.57568Z" opacity="0.2"/><path d="M13.19287,11.89453a.49994.49994,0,0,0,.70166-.0874l7-9a.5.5,0,0,0-.78906-.61426l-7,9A.49976.49976,0,0,0,13.19287,11.89453ZM14,6a2,2,0,1,0-2-2A2.002,2.002,0,0,0,14,6Zm0-3a1,1,0,1,1-1,1A1.0013,1.0013,0,0,1,14,3Zm4,7a2,2,0,1,0,2-2A2.002,2.002,0,0,0,18,10Zm3,0a1,1,0,1,1-1-1A1.0013,1.0013,0,0,1,21,10Zm0,7.5a25.04807,25.04807,0,0,0-4.05072.68384c-.25183-1.31574-2.02032-1.80249-3.84967-2.17407a8.58614,8.58614,0,0,1-2.13623-.7876A5.40472,5.40472,0,0,0,8.5,14.5a11.18366,11.18366,0,0,0-2.84436.42548,1.99422,1.99422,0,0,0-1.4491-1.194l-3.6084-.72168a.508.508,0,0,0-.415.10351A.50078.50078,0,0,0,0,13.5v8a.49971.49971,0,0,0,.5.5H3.19922a2.00974,2.00974,0,0,0,1.74084-1.02124C6.50958,21.72888,11.43262,24,13.5,24c1.93945,0,5.93115-1.9624,8.57227-3.26074.68945-.33887,1.25927-.61914,1.6289-.78125A.50069.50069,0,0,0,24,19.5C24,18.32227,22.76611,17.5,21,17.5Z" fill="url(#a)"/></svg>